Coordinates
version=1
nRows=32
nColumns=12
inDegrees=yes

Units are S.I. units (second, meters, Newtons, ...)
Angles are in degrees

endheader
time	SC_y	SC_z	SC_x	AC_y	AC_z	AC_x	GH_y	GH_z	GH_yy	EL_x	PS_y
       0.0              -33.95           14.9          45.89          30.06           6.53        0.03637          60.53          15.44         -133.4          85.71          142.4
  0.003723              -33.95           14.9          45.88          30.06          6.529        0.03536          60.54          15.44         -133.4          85.72          142.4
  0.007447              -33.95          14.89          45.88          30.07          6.528        0.03428          60.56          15.44         -133.3          85.72          142.4
   0.01117              -33.94          14.89          45.87          30.07          6.526        0.03314          60.57          15.44         -133.3          85.73          142.4
   0.01489              -33.94          14.89          45.87          30.07          6.525        0.03192          60.59          15.45         -133.3          85.73          142.4
   0.01862              -33.94          14.88          45.86          30.07          6.524        0.03062          60.61          15.45         -133.2          85.74          142.4
   0.02234              -33.93          14.88          45.86          30.07          6.523        0.02923          60.63          15.45         -133.2          85.74          142.3
   0.02606              -33.93          14.88          45.85          30.08          6.521        0.02775          60.65          15.45         -133.1          85.75          142.3
   0.02979              -33.92          14.87          45.85          30.08           6.52        0.02616          60.67          15.45         -133.1          85.76          142.3
   0.03351              -33.92          14.87          45.84          30.08          6.518        0.02445          60.69          15.45         -133.0          85.77          142.2
   0.03723              -33.91          14.86          45.83          30.09          6.516        0.02262          60.72          15.45         -133.0          85.78          142.2
   0.04096               -33.9          14.86          45.82          30.09          6.515        0.02065          60.75          15.45         -132.9          85.78          142.2
   0.04468               -33.9          14.85          45.81          30.09          6.513        0.01853          60.78          15.45         -132.9          85.79          142.1
    0.0484              -33.89          14.84          45.81           30.1           6.51        0.01623          60.81          15.45         -132.8           85.8          142.1
   0.05213              -33.88          14.84           45.8           30.1          6.508        0.01375          60.84          15.46         -132.7          85.82          142.1
   0.05585              -33.87          14.83          45.78           30.1          6.505        0.01106          60.88          15.46         -132.6          85.83          142.0
   0.05957              -33.86          14.82          45.77          30.11          6.503        0.00813          60.92          15.46         -132.6          85.84          142.0
    0.0633              -33.85          14.81          45.76          30.11            6.5       0.004942          60.96          15.46         -132.5          85.86          141.9
   0.06702              -33.84           14.8          45.75          30.12          6.496        0.00146          61.01          15.46         -132.4          85.87          141.9
   0.07074              -33.83          14.79          45.73          30.13          6.493      -0.002351          61.06          15.46         -132.2          85.89          141.8
   0.07447              -33.82          14.78          45.71          30.13          6.489      -0.006536          61.12          15.47         -132.1          85.91          141.7
   0.07819               -33.8          14.77           45.7          30.14          6.484       -0.01114          61.19          15.47         -132.0          85.93          141.6
   0.08191              -33.79          14.75          45.68          30.15          6.479       -0.01623          61.26          15.47         -131.8          85.95          141.5
   0.08564              -33.77          14.74          45.65          30.16          6.474       -0.02187          61.34          15.48         -131.7          85.98          141.4
   0.08936              -33.75          14.72          45.63          30.17          6.468       -0.02813          61.42          15.48         -131.5          86.01          141.3
   0.09308              -33.73           14.7           45.6          30.18          6.461       -0.03513          61.52          15.48         -131.3          86.04          141.2
   0.09681               -33.7          14.68          45.57          30.19          6.454       -0.04296          61.63          15.49         -131.0          86.07          141.1
    0.1005              -33.68          14.65          45.53           30.2          6.445       -0.05177          61.75          15.49         -130.8          86.12          140.9
    0.1043              -33.65          14.63          45.49          30.22          6.436       -0.06173          61.89           15.5         -130.5          86.16          140.8
     0.108              -33.61           14.6          45.45          30.24          6.425       -0.07303          62.04          15.51         -130.1          86.21          140.6
    0.1117              -33.57          14.56           45.4          30.26          6.413       -0.08594          62.22          15.51         -129.8          86.27          140.3
    0.1154              -33.52          14.52          45.34          30.28          6.399        -0.1007          62.43          15.52         -129.3          86.34          140.1
